Format                         : Flash Video
File size                      : 318 MiB
Duration                       : 1h 16mn
Overall bit rate               : 581 Kbps
httphostheader                 : r13---sn-h557snez.googlevideo.com

Video
Format                         : AVC
Format/Info                    : Advanced Video Codec
Format profile                 : Main@L3.0
Format settings, CABAC         : Yes
Format settings, ReFrames      : 3 frames
Format settings, GOP           : M=1, N=48
Codec ID                       : 7
Duration                       : 1h 16mn
Bit rate                       : 476 Kbps
Width                          : 640 pixels
Height                         : 360 pixels
Display aspect ratio           : 16:9
Frame rate mode                : Constant
Frame rate                     : 23.976 fps
Color space                    : YUV
Chroma subsampling             : 4:2:0
Bit depth                      : 8 bits
Scan type                      : Progressive
Bits/(Pixel*Frame)             : 0.086
Stream size                    : 261 MiB (82%)

Audio
Format                         : AAC
Format/Info                    : Advanced Audio Codec
Format profile                 : LC
Codec ID                       : 10
Duration                       : 1h 16mn
Bit rate                       : 96.7 Kbps
Channel(s)                     : 1 channel
Channel positions              : Front: C
Sampling rate                  : 44.1 KHz
Compression mode               : Lossy
Stream size                    : 53.0 MiB (17%)
